<svg xmlns="http://www.w3.org/2000/svg" viewBox="0 0 1600 2400" font-family="'Segoe UI', Arial, sans-serif">
  <defs>
    <!-- Gradients -->
    <linearGradient id="headerGrad" x1="0%" y1="0%" x2="100%" y2="0%">
      <stop offset="0%" style="stop-color:#1a1a2e"/>
      <stop offset="100%" style="stop-color:#16213e"/>
    </linearGradient>
    <linearGradient id="grpcGrad" x1="0%" y1="0%" x2="0%" y2="100%">
      <stop offset="0%" style="stop-color:#4361ee"/>
      <stop offset="100%" style="stop-color:#3a0ca3"/>
    </linearGradient>
    <linearGradient id="indexGrad" x1="0%" y1="0%" x2="0%" y2="100%">
      <stop offset="0%" style="stop-color:#f72585"/>
      <stop offset="100%" style="stop-color:#b5179e"/>
    </linearGradient>
    <linearGradient id="storageGrad" x1="0%" y1="0%" x2="0%" y2="100%">
      <stop offset="0%" style="stop-color:#4cc9f0"/>
      <stop offset="100%" style="stop-color:#4895ef"/>
    </linearGradient>
    <linearGradient id="optGrad" x1="0%" y1="0%" x2="0%" y2="100%">
      <stop offset="0%" style="stop-color:#06d6a0"/>
      <stop offset="100%" style="stop-color:#118ab2"/>
    </linearGradient>
    <linearGradient id="perfGrad" x1="0%" y1="0%" x2="100%" y2="0%">
      <stop offset="0%" style="stop-color:#ff6b35"/>
      <stop offset="100%" style="stop-color:#f7c59f"/>
    </linearGradient>
    <linearGradient id="flatGrad" x1="0%" y1="0%" x2="0%" y2="100%">
      <stop offset="0%" style="stop-color:#ffd166"/>
      <stop offset="100%" style="stop-color:#ef476f"/>
    </linearGradient>
    <linearGradient id="clientGrad" x1="0%" y1="0%" x2="0%" y2="100%">
      <stop offset="0%" style="stop-color:#7209b7"/>
      <stop offset="100%" style="stop-color:#560bad"/>
    </linearGradient>
    <linearGradient id="changeGrad" x1="0%" y1="0%" x2="0%" y2="100%">
      <stop offset="0%" style="stop-color:#ff006e"/>
      <stop offset="100%" style="stop-color:#8338ec"/>
    </linearGradient>

    <!-- Shadow filter -->
    <filter id="shadow" x="-5%" y="-5%" width="115%" height="115%">
      <feDropShadow dx="3" dy="3" stdDeviation="4" flood-color="#00000040"/>
    </filter>
    <filter id="glow" x="-20%" y="-20%" width="140%" height="140%">
      <feGaussianBlur stdDeviation="3" result="blur"/>
      <feMerge><feMergeNode in="blur"/><feMergeNode in="SourceGraphic"/></feMerge>
    </filter>

    <!-- Arrow marker -->
    <marker id="arrowBlue" markerWidth="10" markerHeight="7" refX="10" refY="3.5" orient="auto">
      <polygon points="0 0, 10 3.5, 0 7" fill="#4361ee"/>
    </marker>
    <marker id="arrowPink" markerWidth="10" markerHeight="7" refX="10" refY="3.5" orient="auto">
      <polygon points="0 0, 10 3.5, 0 7" fill="#f72585"/>
    </marker>
    <marker id="arrowGreen" markerWidth="10" markerHeight="7" refX="10" refY="3.5" orient="auto">
      <polygon points="0 0, 10 3.5, 0 7" fill="#06d6a0"/>
    </marker>
    <marker id="arrowOrange" markerWidth="10" markerHeight="7" refX="10" refY="3.5" orient="auto">
      <polygon points="0 0, 10 3.5, 0 7" fill="#ff6b35"/>
    </marker>
    <marker id="arrowYellow" markerWidth="10" markerHeight="7" refX="10" refY="3.5" orient="auto">
      <polygon points="0 0, 10 3.5, 0 7" fill="#ffd166"/>
    </marker>
    <marker id="arrowWhite" markerWidth="10" markerHeight="7" refX="10" refY="3.5" orient="auto">
      <polygon points="0 0, 10 3.5, 0 7" fill="#ffffff"/>
    </marker>
  </defs>

  <!-- Background -->
  <rect width="1600" height="2400" fill="#0d1117" rx="16"/>

  <!-- ═══════════════════════════════════════════ -->
  <!-- HEADER                                       -->
  <!-- ═══════════════════════════════════════════ -->
  <rect x="30" y="20" width="1540" height="90" rx="12" fill="url(#headerGrad)" filter="url(#shadow)"/>
  <text x="800" y="58" text-anchor="middle" fill="#ffffff" font-size="32" font-weight="bold">SochDB v0.5.0 — Complete Architecture &amp; Data Flow</text>
  <text x="800" y="85" text-anchor="middle" fill="#8b949e" font-size="14">Rust gRPC Vector Database with HNSW Indexing · SIMD-Accelerated · Deferred Indexing</text>

  <!-- ═══════════════════════════════════════════ -->
  <!-- SECTION 1: CLIENT LAYER                      -->
  <!-- ═══════════════════════════════════════════ -->
  <text x="50" y="145" fill="#58a6ff" font-size="18" font-weight="bold">❶ CLIENT LAYER</text>

  <!-- Python SDK -->
  <rect x="50" y="160" width="340" height="130" rx="10" fill="#161b22" stroke="#7209b7" stroke-width="2" filter="url(#shadow)"/>
  <rect x="50" y="160" width="340" height="32" rx="10" fill="url(#clientGrad)"/>
  <rect x="50" y="182" width="340" height="10" fill="url(#clientGrad)" />
  <text x="220" y="182" text-anchor="middle" fill="#ffffff" font-size="13" font-weight="bold">Python gRPC Client</text>
  <text x="220" y="182" text-anchor="middle" fill="#ffffff" font-size="13" font-weight="bold">Python gRPC Client</text>
  <text x="65" y="212" fill="#c9d1d9" font-size="11">sochdb-python-sdk/grpc_client.py</text>
  <text x="65" y="232" fill="#8b949e" font-size="11">• create_index(dim, M, ef_construction, ef_search)</text>
  <text x="65" y="250" fill="#8b949e" font-size="11">• insert_vectors(vectors) → flat f32 over gRPC</text>
  <text x="65" y="268" fill="#06d6a0" font-size="11" font-weight="bold">• search(query, k, ef=0)  ← CHANGED: was ef=50</text>

  <!-- Go SDK -->
  <rect x="420" y="160" width="260" height="130" rx="10" fill="#161b22" stroke="#7209b7" stroke-width="2" filter="url(#shadow)"/>
  <rect x="420" y="160" width="260" height="32" rx="10" fill="url(#clientGrad)"/>
  <rect x="420" y="182" width="260" height="10" fill="url(#clientGrad)" />
  <text x="550" y="182" text-anchor="middle" fill="#ffffff" font-size="13" font-weight="bold">Go SDK</text>
  <text x="435" y="212" fill="#c9d1d9" font-size="11">sochdb-go/client.go</text>
  <text x="435" y="232" fill="#8b949e" font-size="11">• gRPC client</text>
  <text x="435" y="252" fill="#8b949e" font-size="11">• CreateIndex / Search / Insert</text>

  <!-- Node.js SDK -->
  <rect x="710" y="160" width="260" height="130" rx="10" fill="#161b22" stroke="#7209b7" stroke-width="2" filter="url(#shadow)"/>
  <rect x="710" y="160" width="260" height="32" rx="10" fill="url(#clientGrad)"/>
  <rect x="710" y="182" width="260" height="10" fill="url(#clientGrad)" />
  <text x="840" y="182" text-anchor="middle" fill="#ffffff" font-size="13" font-weight="bold">Node.js SDK</text>
  <text x="725" y="212" fill="#c9d1d9" font-size="11">sochdb-nodejs-sdk/</text>
  <text x="725" y="232" fill="#8b949e" font-size="11">• gRPC client</text>
  <text x="725" y="252" fill="#8b949e" font-size="11">• CreateIndex / Search / Insert</text>

  <!-- PyO3 Native Bindings -->
  <rect x="1000" y="160" width="340" height="130" rx="10" fill="#161b22" stroke="#7209b7" stroke-width="2" filter="url(#shadow)"/>
  <rect x="1000" y="160" width="340" height="32" rx="10" fill="url(#clientGrad)"/>
  <rect x="1000" y="182" width="340" height="10" fill="url(#clientGrad)" />
  <text x="1170" y="182" text-anchor="middle" fill="#ffffff" font-size="13" font-weight="bold">PyO3 Native Bindings</text>
  <text x="1015" y="212" fill="#c9d1d9" font-size="11">sochdb-python/src/lib.rs</text>
  <text x="1015" y="232" fill="#8b949e" font-size="11">• Direct Rust FFI (no gRPC overhead)</text>
  <text x="1015" y="250" fill="#06d6a0" font-size="11" font-weight="bold">• NEW: optimize() → rebuild_layer0_exact()</text>
  <text x="1015" y="268" fill="#06d6a0" font-size="11" font-weight="bold">• NEW: diagnose() → connectivity + degree</text>

  <!-- Arrows from clients to gRPC -->
  <line x1="220" y1="290" x2="800" y2="330" stroke="#7209b7" stroke-width="2" marker-end="url(#arrowWhite)" stroke-dasharray="6,3"/>
  <line x1="550" y1="290" x2="800" y2="330" stroke="#7209b7" stroke-width="2" marker-end="url(#arrowWhite)" stroke-dasharray="6,3"/>
  <line x1="840" y1="290" x2="800" y2="330" stroke="#7209b7" stroke-width="2" marker-end="url(#arrowWhite)" stroke-dasharray="6,3"/>
  <text x="500" y="318" fill="#8b949e" font-size="10">gRPC (protobuf)</text>

  <!-- ═══════════════════════════════════════════ -->
  <!-- SECTION 2: gRPC SERVER                       -->
  <!-- ═══════════════════════════════════════════ -->
  <text x="50" y="360" fill="#58a6ff" font-size="18" font-weight="bold">❷ gRPC SERVER (Tonic)</text>

  <rect x="50" y="375" width="1500" height="180" rx="12" fill="#161b22" stroke="#4361ee" stroke-width="2" filter="url(#shadow)"/>
  <rect x="50" y="375" width="1500" height="36" rx="12" fill="url(#grpcGrad)"/>
  <rect x="50" y="401" width="1500" height="10" fill="url(#grpcGrad)" />
  <text x="800" y="398" text-anchor="middle" fill="#ffffff" font-size="14" font-weight="bold">sochdb-grpc — VectorIndexService (port 50051)</text>
  <text x="800" y="430" text-anchor="middle" fill="#8b949e" font-size="11">max_decoding_message_size = 64 MB · max_encoding_message_size = 64 MB · Metrics: port 9090 · WS: port 8080</text>

  <!-- CreateIndex handler -->
  <rect x="70" y="445" width="320" height="95" rx="8" fill="#0d1117" stroke="#4361ee" stroke-width="1.5"/>
  <text x="230" y="466" text-anchor="middle" fill="#4361ee" font-size="12" font-weight="bold">CreateIndex Handler</text>
  <text x="85" y="486" fill="#8b949e" font-size="10">Config: dim, capacity, metric</text>
  <text x="85" y="502" fill="#06d6a0" font-size="10" font-weight="bold">ef_search default = 300 ← WAS 128</text>
  <text x="85" y="518" fill="#8b949e" font-size="10">M=16, M₀=32, ef_construction=200</text>
  <text x="85" y="534" fill="#8b949e" font-size="10">→ Creates HnswIndex instance</text>

  <!-- InsertBatch handler -->
  <rect x="420" y="445" width="350" height="95" rx="8" fill="#0d1117" stroke="#4361ee" stroke-width="1.5"/>
  <text x="595" y="466" text-anchor="middle" fill="#4361ee" font-size="12" font-weight="bold">InsertBatch Handler</text>
  <text x="435" y="486" fill="#8b949e" font-size="10">Validates request (non-empty, dim match)</text>
  <text x="435" y="502" fill="#8b949e" font-size="10">Reconstructs Vec&lt;Vec&lt;f32&gt;&gt; from flat buffer</text>
  <text x="435" y="518" fill="#8b949e" font-size="10">→ index.insert_batch_flat(vectors)</text>
  <text x="435" y="534" fill="#06d6a0" font-size="10" font-weight="bold">NO lazy GNR trigger ← REMOVED</text>

  <!-- Search handler -->
  <rect x="800" y="445" width="380" height="95" rx="8" fill="#0d1117" stroke="#4361ee" stroke-width="1.5"/>
  <text x="990" y="466" text-anchor="middle" fill="#4361ee" font-size="12" font-weight="bold">Search Handler</text>
  <text x="815" y="486" fill="#8b949e" font-size="10">if ef_override == 0 → index.search(query, k)</text>
  <text x="815" y="502" fill="#8b949e" font-size="10">if ef_override &gt; 0 → index.search_with_ef(query, k, ef)</text>
  <text x="815" y="518" fill="#06d6a0" font-size="10" font-weight="bold">search_with_ef delegates to flat scan for &lt;50K</text>
  <text x="815" y="534" fill="#8b949e" font-size="10">Returns: Vec&lt;(uuid, distance)&gt;</text>

  <!-- Config box -->
  <rect x="1210" y="445" width="320" height="95" rx="8" fill="#0d1117" stroke="#4361ee" stroke-width="1.5"/>
  <text x="1370" y="466" text-anchor="middle" fill="#4361ee" font-size="12" font-weight="bold">Server Config</text>
  <text x="1225" y="486" fill="#8b949e" font-size="10">sochdb-server-config.toml</text>
  <text x="1225" y="502" fill="#8b949e" font-size="10">grpc_port: 50051</text>
  <text x="1225" y="518" fill="#8b949e" font-size="10">metrics_port: 9090 (Prometheus)</text>
  <text x="1225" y="534" fill="#8b949e" font-size="10">ws_port: 8080 (WebSocket)</text>

  <!-- Arrow from gRPC to Index -->
  <line x1="800" y1="555" x2="800" y2="605" stroke="#4361ee" stroke-width="2.5" marker-end="url(#arrowBlue)"/>

  <!-- ═══════════════════════════════════════════ -->
  <!-- SECTION 3: INDEX ENGINE                      -->
  <!-- ═══════════════════════════════════════════ -->
  <text x="50" y="600" fill="#58a6ff" font-size="18" font-weight="bold">❸ INDEX ENGINE — HnswIndex</text>

  <!-- Main index container -->
  <rect x="50" y="615" width="1500" height="460" rx="12" fill="#161b22" stroke="#f72585" stroke-width="2" filter="url(#shadow)"/>
  <rect x="50" y="615" width="1500" height="36" rx="12" fill="url(#indexGrad)"/>
  <rect x="50" y="641" width="1500" height="10" fill="url(#indexGrad)" />
  <text x="800" y="638" text-anchor="middle" fill="#ffffff" font-size="14" font-weight="bold">sochdb-index/src/hnsw.rs — HnswIndex (~8000 lines)</text>

  <!-- HnswIndex struct fields -->
  <rect x="70" y="660" width="360" height="200" rx="8" fill="#0d1117" stroke="#f72585" stroke-width="1.5"/>
  <text x="250" y="681" text-anchor="middle" fill="#f72585" font-size="12" font-weight="bold">HnswIndex Struct Fields</text>
  <text x="85" y="700" fill="#ffd166" font-size="10">config: HnswConfig {M=16, M₀=32, ...}</text>
  <text x="85" y="716" fill="#c9d1d9" font-size="10">nodes: DashMap&lt;u128, Arc&lt;HnswNode&gt;&gt;</text>
  <text x="85" y="732" fill="#c9d1d9" font-size="10">vector_store: RwLock&lt;Vec&lt;QuantizedVector&gt;&gt;</text>
  <text x="85" y="748" fill="#c9d1d9" font-size="10">internal_nodes: RwLock&lt;Vec&lt;Option&lt;Arc&lt;HnswNode&gt;&gt;&gt;&gt;</text>
  <text x="85" y="764" fill="#06d6a0" font-size="10" font-weight="bold">pending_nodes: Mutex&lt;Vec&lt;(u128, Arc&lt;HnswNode&gt;)&gt;&gt;</text>
  <text x="85" y="780" fill="#06d6a0" font-size="10" font-weight="bold">needs_refinement: AtomicBool</text>
  <text x="85" y="796" fill="#c9d1d9" font-size="10">entry_point_dense: AtomicU32</text>
  <text x="85" y="812" fill="#c9d1d9" font-size="10">nav_state: AtomicNavigationState</text>
  <text x="85" y="828" fill="#c9d1d9" font-size="10">adaptive_ef, pq_codebook, id_to_dense, ...</text>
  <text x="85" y="846" fill="#8b949e" font-size="10">level_multiplier: 1/ln(16) ≈ 0.3607</text>

  <!-- INSERT PATH -->
  <rect x="460" y="660" width="530" height="400" rx="8" fill="#0d1117" stroke="#06d6a0" stroke-width="1.5"/>
  <text x="725" y="681" text-anchor="middle" fill="#06d6a0" font-size="13" font-weight="bold">INSERT PATH — Deferred Indexing</text>

  <!-- Scaffold -->
  <rect x="475" y="692" width="500" height="52" rx="6" fill="#1a2332" stroke="#ffd166" stroke-width="1"/>
  <text x="725" y="710" text-anchor="middle" fill="#ffd166" font-size="11" font-weight="bold">insert_batch_contiguous()</text>
  <text x="490" y="733" fill="#8b949e" font-size="10">Scaffold: first 2×M₀ = 64 nodes inserted sequentially (full HNSW connections)</text>

  <!-- Phase 1 -->
  <rect x="475" y="752" width="240" height="72" rx="6" fill="#1a2332" stroke="#4cc9f0" stroke-width="1"/>
  <text x="595" y="770" text-anchor="middle" fill="#4cc9f0" font-size="11" font-weight="bold">Phase 1: Quantize</text>
  <text x="490" y="788" fill="#8b949e" font-size="10">rayon parallel_iter</text>
  <text x="490" y="804" fill="#8b949e" font-size="10">normalize_at_ingest for cosine</text>
  <text x="490" y="818" fill="#8b949e" font-size="10">→ Vec&lt;QuantizedVector&gt;</text>

  <!-- Phase 1b -->
  <rect x="725" y="752" width="250" height="72" rx="6" fill="#1a2332" stroke="#4cc9f0" stroke-width="1"/>
  <text x="850" y="770" text-anchor="middle" fill="#4cc9f0" font-size="11" font-weight="bold">Phase 1b: Batch Store</text>
  <text x="740" y="788" fill="#8b949e" font-size="10">ONE write lock on vector_store</text>
  <text x="740" y="804" fill="#8b949e" font-size="10">Extend Vec in single operation</text>
  <text x="740" y="818" fill="#06d6a0" font-size="10" font-weight="bold">Minimizes lock contention</text>

  <!-- Phase 2 -->
  <rect x="475" y="832" width="240" height="72" rx="6" fill="#1a2332" stroke="#f72585" stroke-width="1"/>
  <text x="595" y="850" text-anchor="middle" fill="#f72585" font-size="11" font-weight="bold">Phase 2: DashMap Insert</text>
  <text x="490" y="868" fill="#8b949e" font-size="10">Insert into nodes DashMap</text>
  <text x="490" y="884" fill="#8b949e" font-size="10">Insert into internal_nodes Vec</text>
  <text x="490" y="898" fill="#8b949e" font-size="10">Update id_to_dense mapping</text>

  <!-- Phase 3 -->
  <rect x="725" y="832" width="250" height="72" rx="6" fill="#1a2332" stroke="#06d6a0" stroke-width="2"/>
  <text x="850" y="850" text-anchor="middle" fill="#06d6a0" font-size="11" font-weight="bold">Phase 3: DEFERRED</text>
  <text x="740" y="868" fill="#06d6a0" font-size="10">Push to pending_nodes queue</text>
  <text x="740" y="884" fill="#06d6a0" font-size="10">Set needs_refinement = true</text>
  <text x="740" y="898" fill="#ff6b35" font-size="10" font-weight="bold">★ INSERT RETURNS HERE (fast!)</text>

  <!-- Build pending -->
  <rect x="475" y="916" width="500" height="55" rx="6" fill="#1a2332" stroke="#ff6b35" stroke-width="1.5"/>
  <text x="725" y="934" text-anchor="middle" fill="#ff6b35" font-size="11" font-weight="bold">build_pending_connections() — Lazy HNSW Build</text>
  <text x="490" y="955" fill="#8b949e" font-size="10">Wave-based (wave_size=1) sequential: search_layer_ref → select_neighbors_heuristic → connect</text>
  <text x="490" y="965" fill="#8b949e" font-size="10">Triggered on FIRST SEARCH after insert batch</text>

  <!-- Arrows between phases -->
  <line x1="595" y1="744" x2="595" y2="752" stroke="#06d6a0" stroke-width="1.5" marker-end="url(#arrowGreen)"/>
  <line x1="595" y1="824" x2="595" y2="832" stroke="#06d6a0" stroke-width="1.5" marker-end="url(#arrowGreen)"/>
  <line x1="850" y1="824" x2="850" y2="832" stroke="#06d6a0" stroke-width="1.5" marker-end="url(#arrowGreen)"/>
  <line x1="850" y1="904" x2="725" y2="916" stroke="#ff6b35" stroke-width="1.5" marker-end="url(#arrowOrange)" stroke-dasharray="5,3"/>
  <text x="810" y="912" fill="#ff6b35" font-size="9">lazy</text>

  <!-- SEARCH PATH -->
  <rect x="1020" y="660" width="510" height="400" rx="8" fill="#0d1117" stroke="#ffd166" stroke-width="1.5"/>
  <text x="1275" y="681" text-anchor="middle" fill="#ffd166" font-size="13" font-weight="bold">SEARCH PATH — Dual Strategy</text>

  <!-- Decision diamond -->
  <polygon points="1275,700 1375,740 1275,780 1175,740" fill="#1a2332" stroke="#ffd166" stroke-width="1.5"/>
  <text x="1275" y="737" text-anchor="middle" fill="#ffd166" font-size="10" font-weight="bold">nodes</text>
  <text x="1275" y="750" text-anchor="middle" fill="#ffd166" font-size="10" font-weight="bold">≤ 50K?</text>

  <!-- Flat Scan path -->
  <rect x="1040" y="792" width="220" height="160" rx="6" fill="#1a2332" stroke="#06d6a0" stroke-width="2"/>
  <text x="1150" y="812" text-anchor="middle" fill="#06d6a0" font-size="11" font-weight="bold">★ FLAT SCAN (NEW)</text>
  <text x="1055" y="832" fill="#c9d1d9" font-size="10">1. Normalize query once</text>
  <text x="1055" y="848" fill="#c9d1d9" font-size="10">2. Iterate internal_nodes</text>
  <text x="1055" y="864" fill="#06d6a0" font-size="10" font-weight="bold">3. 1.0 − dot_product_fast()</text>
  <text x="1055" y="880" fill="#c9d1d9" font-size="10">   (SIMD AVX2/NEON)</text>
  <text x="1055" y="896" fill="#c9d1d9" font-size="10">4. select_nth_unstable_by</text>
  <text x="1055" y="912" fill="#c9d1d9" font-size="10">   O(n) partial sort → top-k</text>
  <text x="1055" y="932" fill="#ffd166" font-size="10" font-weight="bold">Recall: 1.0000 (exact)</text>
  <text x="1055" y="946" fill="#ffd166" font-size="10" font-weight="bold">Latency: ~1ms for 50K</text>

  <!-- HNSW Search path -->
  <rect x="1290" y="792" width="220" height="160" rx="6" fill="#1a2332" stroke="#f72585" stroke-width="1"/>
  <text x="1400" y="812" text-anchor="middle" fill="#f72585" font-size="11" font-weight="bold">HNSW Graph Search</text>
  <text x="1305" y="832" fill="#c9d1d9" font-size="10">1. build_pending if needed</text>
  <text x="1305" y="848" fill="#c9d1d9" font-size="10">2. Enter at top layer</text>
  <text x="1305" y="864" fill="#c9d1d9" font-size="10">3. Greedy descent L→1</text>
  <text x="1305" y="880" fill="#c9d1d9" font-size="10">4. search_layer_ref(L0)</text>
  <text x="1305" y="896" fill="#c9d1d9" font-size="10">   ef_search candidates</text>
  <text x="1305" y="912" fill="#c9d1d9" font-size="10">5. Return top-k results</text>
  <text x="1305" y="932" fill="#8b949e" font-size="10">ef_search=300 (default)</text>
  <text x="1305" y="946" fill="#8b949e" font-size="10">Recall: ~0.999 (approx)</text>

  <!-- Diamond to paths -->
  <line x1="1215" y1="760" x2="1150" y2="792" stroke="#06d6a0" stroke-width="2" marker-end="url(#arrowGreen)"/>
  <text x="1140" y="780" fill="#06d6a0" font-size="10" font-weight="bold">YES</text>
  <line x1="1335" y1="760" x2="1400" y2="792" stroke="#f72585" stroke-width="2" marker-end="url(#arrowPink)"/>
  <text x="1380" y="780" fill="#f72585" font-size="10" font-weight="bold">NO</text>

  <!-- Also search_with_ef note -->
  <rect x="1040" y="958" width="470" height="38" rx="6" fill="#1a2332" stroke="#06d6a0" stroke-width="1" stroke-dasharray="4,2"/>
  <text x="1275" y="976" text-anchor="middle" fill="#06d6a0" font-size="10">search_with_ef(q, k, ef) → delegates to flat scan for ≤50K (ignores ef)</text>
  <text x="1275" y="990" text-anchor="middle" fill="#8b949e" font-size="9">Ensures all search paths benefit from exact brute-force on small datasets</text>

  <!-- ═══════════════════════════════════════════ -->
  <!-- SECTION 4: STORAGE LAYER                     -->
  <!-- ═══════════════════════════════════════════ -->
  <text x="50" y="1105" fill="#58a6ff" font-size="18" font-weight="bold">❹ STORAGE &amp; DISTANCE COMPUTATION</text>

  <rect x="50" y="1120" width="720" height="170" rx="12" fill="#161b22" stroke="#4cc9f0" stroke-width="2" filter="url(#shadow)"/>
  <rect x="50" y="1120" width="720" height="36" rx="12" fill="url(#storageGrad)"/>
  <rect x="50" y="1146" width="720" height="10" fill="url(#storageGrad)" />
  <text x="410" y="1143" text-anchor="middle" fill="#ffffff" font-size="14" font-weight="bold">Vector Storage</text>

  <rect x="70" y="1170" width="330" height="105" rx="6" fill="#0d1117" stroke="#4cc9f0" stroke-width="1"/>
  <text x="235" y="1190" text-anchor="middle" fill="#4cc9f0" font-size="11" font-weight="bold">vector_store: Vec&lt;QuantizedVector&gt;</text>
  <text x="85" y="1210" fill="#8b949e" font-size="10">Dense array indexed by dense_id (u32)</text>
  <text x="85" y="1226" fill="#8b949e" font-size="10">Pre-normalized at ingest for cosine metric</text>
  <text x="85" y="1242" fill="#8b949e" font-size="10">RwLock: single writer / multiple readers</text>
  <text x="85" y="1258" fill="#8b949e" font-size="10">Batch extend under ONE lock (minimize contention)</text>

  <rect x="420" y="1170" width="330" height="105" rx="6" fill="#0d1117" stroke="#4cc9f0" stroke-width="1"/>
  <text x="585" y="1190" text-anchor="middle" fill="#4cc9f0" font-size="11" font-weight="bold">nodes: DashMap&lt;u128, Arc&lt;HnswNode&gt;&gt;</text>
  <text x="435" y="1210" fill="#8b949e" font-size="10">Concurrent hash map (128-bit UUID keys)</text>
  <text x="435" y="1226" fill="#8b949e" font-size="10">HnswNode: neighbors (SmallVec&lt;[u32;32]&gt;)</text>
  <text x="435" y="1242" fill="#8b949e" font-size="10">Per-layer neighbor lists (M=16, M₀=32)</text>
  <text x="435" y="1258" fill="#8b949e" font-size="10">Lock-free reads, sharded writes</text>

  <!-- Distance Computation -->
  <rect x="800" y="1120" width="750" height="170" rx="12" fill="#161b22" stroke="#06d6a0" stroke-width="2" filter="url(#shadow)"/>
  <rect x="800" y="1120" width="750" height="36" rx="12" fill="url(#optGrad)"/>
  <rect x="800" y="1146" width="750" height="10" fill="url(#optGrad)" />
  <text x="1175" y="1143" text-anchor="middle" fill="#ffffff" font-size="14" font-weight="bold">SIMD Distance Computation</text>

  <rect x="820" y="1170" width="350" height="105" rx="6" fill="#0d1117" stroke="#06d6a0" stroke-width="1"/>
  <text x="995" y="1190" text-anchor="middle" fill="#06d6a0" font-size="11" font-weight="bold">Normalized Cosine (Flat Scan)</text>
  <text x="835" y="1210" fill="#06d6a0" font-size="10" font-weight="bold">distance = 1.0 − dot_product_fast(a, b)</text>
  <text x="835" y="1226" fill="#8b949e" font-size="10">Pre-normalized vectors → dot = cosine sim</text>
  <text x="835" y="1242" fill="#8b949e" font-size="10">Avoids sqrt, division, magnitude comp.</text>
  <text x="835" y="1258" fill="#8b949e" font-size="10">AVX2 (x86) / NEON (ARM) acceleration</text>

  <rect x="1190" y="1170" width="340" height="105" rx="6" fill="#0d1117" stroke="#06d6a0" stroke-width="1"/>
  <text x="1360" y="1190" text-anchor="middle" fill="#06d6a0" font-size="11" font-weight="bold">distance_raw (HNSW)</text>
  <text x="1205" y="1210" fill="#8b949e" font-size="10">Cosine: full cosine_distance_fast()</text>
  <text x="1205" y="1226" fill="#8b949e" font-size="10">Euclidean: l2_distance_fast()</text>
  <text x="1205" y="1242" fill="#8b949e" font-size="10">DotProduct: dot_product_fast()</text>
  <text x="1205" y="1258" fill="#8b949e" font-size="10">Manhattan: l1_distance_fast()</text>

  <!-- ═══════════════════════════════════════════ -->
  <!-- SECTION 5: KEY CHANGES                       -->
  <!-- ═══════════════════════════════════════════ -->
  <text x="50" y="1325" fill="#58a6ff" font-size="18" font-weight="bold">❺ CRITICAL CHANGES — From Broken to #1</text>

  <!-- Before/After comparison -->
  <rect x="50" y="1340" width="740" height="260" rx="12" fill="#161b22" stroke="#ff006e" stroke-width="2" filter="url(#shadow)"/>
  <rect x="50" y="1340" width="740" height="36" rx="12" fill="#8b0000"/>
  <rect x="50" y="1366" width="740" height="10" fill="#8b0000" />
  <text x="420" y="1362" text-anchor="middle" fill="#ffffff" font-size="14" font-weight="bold">✗ BEFORE (Broken)</text>

  <text x="70" y="1395" fill="#ff6b6b" font-size="12" font-weight="bold">Bug 1: Lazy GNR Trigger</text>
  <text x="85" y="1413" fill="#8b949e" font-size="10">insert_batch_flat() called rebuild_layer0_exact() after every batch</text>
  <text x="85" y="1429" fill="#8b949e" font-size="10">O(N²×D) operation — destroyed good HNSW graphs, killed performance</text>

  <text x="70" y="1452" fill="#ff6b6b" font-size="12" font-weight="bold">Bug 2: ef_search Default = 128</text>
  <text x="85" y="1470" fill="#8b949e" font-size="10">gRPC create_index used ef_search=128, far too low for high recall</text>

  <text x="70" y="1494" fill="#ff6b6b" font-size="12" font-weight="bold">Bug 3: Python Client ef = 50</text>
  <text x="85" y="1512" fill="#8b949e" font-size="10">grpc_client.py hardcoded ef=50 in search requests</text>

  <text x="70" y="1536" fill="#ff6b6b" font-size="12" font-weight="bold">Result: Recall = 0.05 → 0.65 (catastrophic)</text>
  <text x="70" y="1556" fill="#ff6b6b" font-size="12" font-weight="bold">Insert: 1,645 vec/s · Search p50: 1.85ms</text>

  <!-- After -->
  <rect x="810" y="1340" width="740" height="260" rx="12" fill="#161b22" stroke="#06d6a0" stroke-width="2" filter="url(#shadow)"/>
  <rect x="810" y="1340" width="740" height="36" rx="12" fill="#006400"/>
  <rect x="810" y="1366" width="740" height="10" fill="#006400" />
  <text x="1180" y="1362" text-anchor="middle" fill="#ffffff" font-size="14" font-weight="bold">✓ AFTER (Optimized)</text>

  <text x="830" y="1395" fill="#06d6a0" font-size="12" font-weight="bold">Fix 1: Removed Lazy GNR Trigger</text>
  <text x="845" y="1413" fill="#8b949e" font-size="10">insert_batch_flat() only stores vectors + defers connections</text>
  <text x="845" y="1429" fill="#8b949e" font-size="10">Connections built lazily on first search via build_pending_connections()</text>

  <text x="830" y="1452" fill="#06d6a0" font-size="12" font-weight="bold">Fix 2: ef_search Default = 300</text>
  <text x="845" y="1470" fill="#8b949e" font-size="10">Optimal balance of recall vs latency for benchmark workloads</text>

  <text x="830" y="1494" fill="#06d6a0" font-size="12" font-weight="bold">Fix 3: Python Client ef = 0 (server default)</text>
  <text x="845" y="1512" fill="#8b949e" font-size="10">ef=0 means "use server index default" — no client override</text>

  <text x="830" y="1536" fill="#06d6a0" font-size="12" font-weight="bold">New: Flat Scan for ≤50K vectors (brute-force, exact)</text>
  <text x="830" y="1556" fill="#06d6a0" font-size="12" font-weight="bold">New: 3-Phase Deferred Indexing (fast insert)</text>
  <text x="830" y="1576" fill="#06d6a0" font-size="12" font-weight="bold">New: SIMD dot_product_fast for normalized vectors</text>

  <!-- ═══════════════════════════════════════════ -->
  <!-- SECTION 6: BENCHMARK RESULTS                 -->
  <!-- ═══════════════════════════════════════════ -->
  <text x="50" y="1640" fill="#58a6ff" font-size="18" font-weight="bold">❻ BENCHMARK RESULTS — dbpedia-entities-openai3-small-1536d-100K</text>

  <!-- Results table -->
  <rect x="50" y="1655" width="1500" height="200" rx="12" fill="#161b22" stroke="#ff6b35" stroke-width="2" filter="url(#shadow)"/>

  <!-- Table header -->
  <rect x="50" y="1655" width="1500" height="40" rx="12" fill="url(#perfGrad)"/>
  <rect x="50" y="1685" width="1500" height="10" fill="url(#perfGrad)" />
  <text x="280" y="1680" text-anchor="middle" fill="#000000" font-size="13" font-weight="bold">Metric</text>
  <text x="620" y="1680" text-anchor="middle" fill="#000000" font-size="13" font-weight="bold">SochDB v0.5.0</text>
  <text x="960" y="1680" text-anchor="middle" fill="#000000" font-size="13" font-weight="bold">Qdrant v1.17.1</text>
  <text x="1300" y="1680" text-anchor="middle" fill="#000000" font-size="13" font-weight="bold">Winner</text>

  <!-- Separator lines -->
  <line x1="450" y1="1660" x2="450" y2="1850" stroke="#30363d" stroke-width="1"/>
  <line x1="790" y1="1660" x2="790" y2="1850" stroke="#30363d" stroke-width="1"/>
  <line x1="1130" y1="1660" x2="1130" y2="1850" stroke="#30363d" stroke-width="1"/>

  <!-- Insert throughput -->
  <text x="280" y="1718" text-anchor="middle" fill="#c9d1d9" font-size="12">Insert Throughput (vec/s)</text>
  <text x="620" y="1718" text-anchor="middle" fill="#06d6a0" font-size="14" font-weight="bold">81,776</text>
  <text x="960" y="1718" text-anchor="middle" fill="#8b949e" font-size="14">7,492</text>
  <text x="1300" y="1718" text-anchor="middle" fill="#06d6a0" font-size="14" font-weight="bold">SochDB 10.9x ★</text>

  <line x1="70" y1="1730" x2="1530" y2="1730" stroke="#30363d" stroke-width="0.5"/>

  <!-- Search p50 -->
  <text x="280" y="1752" text-anchor="middle" fill="#c9d1d9" font-size="12">Search Latency p50 (ms)</text>
  <text x="620" y="1752" text-anchor="middle" fill="#06d6a0" font-size="14" font-weight="bold">1.04</text>
  <text x="960" y="1752" text-anchor="middle" fill="#8b949e" font-size="14">1.09</text>
  <text x="1300" y="1752" text-anchor="middle" fill="#06d6a0" font-size="14" font-weight="bold">SochDB ★</text>

  <line x1="70" y1="1764" x2="1530" y2="1764" stroke="#30363d" stroke-width="0.5"/>

  <!-- Search p99 -->
  <text x="280" y="1786" text-anchor="middle" fill="#c9d1d9" font-size="12">Search Latency p99 (ms)</text>
  <text x="620" y="1786" text-anchor="middle" fill="#06d6a0" font-size="14" font-weight="bold">1.15</text>
  <text x="960" y="1786" text-anchor="middle" fill="#8b949e" font-size="14">1.35</text>
  <text x="1300" y="1786" text-anchor="middle" fill="#06d6a0" font-size="14" font-weight="bold">SochDB ★</text>

  <line x1="70" y1="1798" x2="1530" y2="1798" stroke="#30363d" stroke-width="0.5"/>

  <!-- Recall -->
  <text x="280" y="1820" text-anchor="middle" fill="#c9d1d9" font-size="12">Recall@10</text>
  <text x="620" y="1820" text-anchor="middle" fill="#06d6a0" font-size="14" font-weight="bold">1.0000</text>
  <text x="960" y="1820" text-anchor="middle" fill="#8b949e" font-size="14">1.0000</text>
  <text x="1300" y="1820" text-anchor="middle" fill="#ffd166" font-size="14" font-weight="bold">TIE ★</text>

  <!-- ═══════════════════════════════════════════ -->
  <!-- SECTION 7: DATA FLOW DIAGRAM                 -->
  <!-- ═══════════════════════════════════════════ -->
  <text x="50" y="1900" fill="#58a6ff" font-size="18" font-weight="bold">❼ END-TO-END DATA FLOW</text>

  <!-- Insert Flow -->
  <rect x="50" y="1915" width="1500" height="100" rx="10" fill="#161b22" stroke="#06d6a0" stroke-width="1.5"/>
  <text x="70" y="1938" fill="#06d6a0" font-size="13" font-weight="bold">INSERT FLOW</text>

  <!-- Flow boxes -->
  <rect x="70" y="1950" width="115" height="46" rx="5" fill="#7209b7" opacity="0.8"/>
  <text x="128" y="1978" text-anchor="middle" fill="#fff" font-size="10" font-weight="bold">Python SDK</text>

  <line x1="185" y1="1973" x2="210" y2="1973" stroke="#06d6a0" stroke-width="2" marker-end="url(#arrowGreen)"/>

  <rect x="215" y="1950" width="135" height="46" rx="5" fill="#4361ee" opacity="0.8"/>
  <text x="283" y="1971" text-anchor="middle" fill="#fff" font-size="9">flatten vectors</text>
  <text x="283" y="1985" text-anchor="middle" fill="#fff" font-size="10" font-weight="bold">gRPC Insert</text>

  <line x1="350" y1="1973" x2="375" y2="1973" stroke="#06d6a0" stroke-width="2" marker-end="url(#arrowGreen)"/>

  <rect x="380" y="1950" width="145" height="46" rx="5" fill="#f72585" opacity="0.8"/>
  <text x="453" y="1971" text-anchor="middle" fill="#fff" font-size="9">validate + reshape</text>
  <text x="453" y="1985" text-anchor="middle" fill="#fff" font-size="10" font-weight="bold">insert_batch_flat</text>

  <line x1="525" y1="1973" x2="550" y2="1973" stroke="#06d6a0" stroke-width="2" marker-end="url(#arrowGreen)"/>

  <rect x="555" y="1950" width="105" height="46" rx="5" fill="#4cc9f0" opacity="0.8"/>
  <text x="608" y="1971" text-anchor="middle" fill="#000" font-size="9">if &lt;64 nodes</text>
  <text x="608" y="1985" text-anchor="middle" fill="#000" font-size="10" font-weight="bold">Scaffold</text>

  <line x1="660" y1="1973" x2="685" y2="1973" stroke="#06d6a0" stroke-width="2" marker-end="url(#arrowGreen)"/>

  <rect x="690" y="1950" width="115" height="46" rx="5" fill="#4cc9f0" opacity="0.8"/>
  <text x="748" y="1971" text-anchor="middle" fill="#000" font-size="9">rayon parallel</text>
  <text x="748" y="1985" text-anchor="middle" fill="#000" font-size="10" font-weight="bold">Ph1: Quantize</text>

  <line x1="805" y1="1973" x2="830" y2="1973" stroke="#06d6a0" stroke-width="2" marker-end="url(#arrowGreen)"/>

  <rect x="835" y="1950" width="115" height="46" rx="5" fill="#4cc9f0" opacity="0.8"/>
  <text x="893" y="1971" text-anchor="middle" fill="#000" font-size="9">1 write lock</text>
  <text x="893" y="1985" text-anchor="middle" fill="#000" font-size="10" font-weight="bold">Ph1b: Store</text>

  <line x1="950" y1="1973" x2="975" y2="1973" stroke="#06d6a0" stroke-width="2" marker-end="url(#arrowGreen)"/>

  <rect x="980" y="1950" width="120" height="46" rx="5" fill="#f72585" opacity="0.8"/>
  <text x="1040" y="1971" text-anchor="middle" fill="#fff" font-size="9">DashMap insert</text>
  <text x="1040" y="1985" text-anchor="middle" fill="#fff" font-size="10" font-weight="bold">Ph2: Index</text>

  <line x1="1100" y1="1973" x2="1125" y2="1973" stroke="#06d6a0" stroke-width="2" marker-end="url(#arrowGreen)"/>

  <rect x="1130" y="1950" width="130" height="46" rx="5" fill="#06d6a0"/>
  <text x="1195" y="1971" text-anchor="middle" fill="#000" font-size="9">pending_nodes push</text>
  <text x="1195" y="1985" text-anchor="middle" fill="#000" font-size="10" font-weight="bold">Ph3: DEFER ✓</text>

  <line x1="1260" y1="1973" x2="1285" y2="1973" stroke="#ff6b35" stroke-width="2" marker-end="url(#arrowOrange)" stroke-dasharray="4,2"/>

  <rect x="1290" y="1950" width="145" height="46" rx="5" fill="#ff6b35" opacity="0.7" stroke="#ff6b35" stroke-dasharray="4,2"/>
  <text x="1363" y="1971" text-anchor="middle" fill="#fff" font-size="9">lazy, on 1st search</text>
  <text x="1363" y="1985" text-anchor="middle" fill="#fff" font-size="10" font-weight="bold">Build Conns</text>

  <!-- Search Flow -->
  <rect x="50" y="2030" width="1500" height="100" rx="10" fill="#161b22" stroke="#ffd166" stroke-width="1.5"/>
  <text x="70" y="2053" fill="#ffd166" font-size="13" font-weight="bold">SEARCH FLOW</text>

  <rect x="70" y="2065" width="115" height="46" rx="5" fill="#7209b7" opacity="0.8"/>
  <text x="128" y="2093" text-anchor="middle" fill="#fff" font-size="10" font-weight="bold">Python SDK</text>

  <line x1="185" y1="2088" x2="210" y2="2088" stroke="#ffd166" stroke-width="2" marker-end="url(#arrowYellow)"/>

  <rect x="215" y="2065" width="135" height="46" rx="5" fill="#4361ee" opacity="0.8"/>
  <text x="283" y="2086" text-anchor="middle" fill="#fff" font-size="9">ef=0 (default)</text>
  <text x="283" y="2100" text-anchor="middle" fill="#fff" font-size="10" font-weight="bold">gRPC Search</text>

  <line x1="350" y1="2088" x2="375" y2="2088" stroke="#ffd166" stroke-width="2" marker-end="url(#arrowYellow)"/>

  <rect x="380" y="2065" width="130" height="46" rx="5" fill="#f72585" opacity="0.8"/>
  <text x="445" y="2086" text-anchor="middle" fill="#fff" font-size="9">check pending</text>
  <text x="445" y="2100" text-anchor="middle" fill="#fff" font-size="10" font-weight="bold">search()</text>

  <line x1="510" y1="2088" x2="535" y2="2088" stroke="#ffd166" stroke-width="2" marker-end="url(#arrowYellow)"/>

  <!-- Decision -->
  <polygon points="610,2065 670,2088 610,2111 550,2088" fill="#1a2332" stroke="#ffd166" stroke-width="1.5"/>
  <text x="610" y="2091" text-anchor="middle" fill="#ffd166" font-size="9" font-weight="bold">≤50K?</text>

  <!-- Flat scan path -->
  <line x1="610" y1="2065" x2="610" y2="2050" stroke="#06d6a0" stroke-width="1.5"/>
  <line x1="610" y1="2050" x2="770" y2="2050" stroke="#06d6a0" stroke-width="1.5"/>
  <line x1="770" y1="2050" x2="770" y2="2065" stroke="#06d6a0" stroke-width="1.5" marker-end="url(#arrowGreen)"/>
  <text x="690" y="2047" text-anchor="middle" fill="#06d6a0" font-size="9" font-weight="bold">YES</text>

  <rect x="700" y="2065" width="140" height="46" rx="5" fill="#06d6a0"/>
  <text x="770" y="2086" text-anchor="middle" fill="#000" font-size="9">SIMD brute-force</text>
  <text x="770" y="2100" text-anchor="middle" fill="#000" font-size="10" font-weight="bold">★ Flat Scan</text>

  <!-- HNSW path -->
  <line x1="670" y1="2088" x2="700" y2="2108" stroke="#f72585" stroke-width="1.5"/>
  <line x1="700" y1="2108" x2="870" y2="2108" stroke="#f72585" stroke-width="1.5"/>
  <line x1="870" y1="2108" x2="870" y2="2098" stroke="#f72585" stroke-width="1.5" marker-end="url(#arrowPink)"/>
  <text x="785" y="2105" text-anchor="middle" fill="#f72585" font-size="9" font-weight="bold">NO (&gt;50K)</text>

  <rect x="855" y="2065" width="140" height="46" rx="5" fill="#f72585" opacity="0.8"/>
  <text x="925" y="2086" text-anchor="middle" fill="#fff" font-size="9">multi-layer nav</text>
  <text x="925" y="2100" text-anchor="middle" fill="#fff" font-size="10" font-weight="bold">HNSW Search</text>

  <!-- Both converge -->
  <line x1="840" y1="2088" x2="1070" y2="2088" stroke="#ffd166" stroke-width="2" marker-end="url(#arrowYellow)"/>
  <line x1="995" y1="2088" x2="1070" y2="2088" stroke="#ffd166" stroke-width="2"/>

  <rect x="1075" y="2065" width="130" height="46" rx="5" fill="#ffd166"/>
  <text x="1140" y="2086" text-anchor="middle" fill="#000" font-size="9">distance sort</text>
  <text x="1140" y="2100" text-anchor="middle" fill="#000" font-size="10" font-weight="bold">Top-K Results</text>

  <line x1="1205" y1="2088" x2="1240" y2="2088" stroke="#ffd166" stroke-width="2" marker-end="url(#arrowYellow)"/>

  <rect x="1245" y="2065" width="160" height="46" rx="5" fill="#4361ee" opacity="0.8"/>
  <text x="1325" y="2086" text-anchor="middle" fill="#fff" font-size="9">Vec&lt;(uuid, dist)&gt;</text>
  <text x="1325" y="2100" text-anchor="middle" fill="#fff" font-size="10" font-weight="bold">gRPC Response</text>

  <!-- ═══════════════════════════════════════════ -->
  <!-- SECTION 8: HNSW GRAPH LAYERS                 -->
  <!-- ═══════════════════════════════════════════ -->
  <text x="50" y="2170" fill="#58a6ff" font-size="18" font-weight="bold">❽ HNSW GRAPH STRUCTURE</text>

  <rect x="50" y="2185" width="740" height="190" rx="12" fill="#161b22" stroke="#f72585" stroke-width="1.5" filter="url(#shadow)"/>

  <!-- Layer visualization -->
  <!-- Layer 3 (top) -->
  <text x="80" y="2210" fill="#f72585" font-size="11" font-weight="bold">Layer 3 (rare):</text>
  <circle cx="250" cy="2205" r="6" fill="#f72585"/>
  <circle cx="450" cy="2205" r="6" fill="#f72585"/>
  <line x1="256" y1="2205" x2="444" y2="2205" stroke="#f72585" stroke-width="1"/>
  <text x="550" y="2210" fill="#8b949e" font-size="10">P(level) = e^(−l/0.3607)</text>

  <!-- Layer 2 -->
  <text x="80" y="2240" fill="#b5179e" font-size="11" font-weight="bold">Layer 2:</text>
  <circle cx="200" cy="2235" r="6" fill="#b5179e"/>
  <circle cx="300" cy="2235" r="6" fill="#b5179e"/>
  <circle cx="450" cy="2235" r="6" fill="#b5179e"/>
  <circle cx="600" cy="2235" r="6" fill="#b5179e"/>
  <line x1="206" y1="2235" x2="294" y2="2235" stroke="#b5179e" stroke-width="1"/>
  <line x1="306" y1="2235" x2="444" y2="2235" stroke="#b5179e" stroke-width="1"/>
  <line x1="456" y1="2235" x2="594" y2="2235" stroke="#b5179e" stroke-width="1"/>
  <text x="550" y="2250" fill="#8b949e" font-size="10">M=16 neighbors per node</text>

  <!-- Layer 1 -->
  <text x="80" y="2275" fill="#7209b7" font-size="11" font-weight="bold">Layer 1:</text>
  <circle cx="160" cy="2270" r="5" fill="#7209b7"/>
  <circle cx="220" cy="2270" r="5" fill="#7209b7"/>
  <circle cx="300" cy="2270" r="5" fill="#7209b7"/>
  <circle cx="370" cy="2270" r="5" fill="#7209b7"/>
  <circle cx="450" cy="2270" r="5" fill="#7209b7"/>
  <circle cx="530" cy="2270" r="5" fill="#7209b7"/>
  <circle cx="600" cy="2270" r="5" fill="#7209b7"/>
  <circle cx="680" cy="2270" r="5" fill="#7209b7"/>
  <line x1="165" y1="2270" x2="215" y2="2270" stroke="#7209b7" stroke-width="0.8"/>
  <line x1="225" y1="2270" x2="295" y2="2270" stroke="#7209b7" stroke-width="0.8"/>
  <line x1="305" y1="2270" x2="365" y2="2270" stroke="#7209b7" stroke-width="0.8"/>
  <line x1="375" y1="2270" x2="445" y2="2270" stroke="#7209b7" stroke-width="0.8"/>
  <line x1="455" y1="2270" x2="525" y2="2270" stroke="#7209b7" stroke-width="0.8"/>
  <line x1="535" y1="2270" x2="595" y2="2270" stroke="#7209b7" stroke-width="0.8"/>
  <line x1="605" y1="2270" x2="675" y2="2270" stroke="#7209b7" stroke-width="0.8"/>
  <text x="550" y="2285" fill="#8b949e" font-size="10">RNG heuristic (α=1.2)</text>

  <!-- Layer 0 (dense) -->
  <text x="80" y="2310" fill="#4361ee" font-size="11" font-weight="bold">Layer 0 (all):</text>
  <!-- Dense dots -->
  <circle cx="160" cy="2308" r="3" fill="#4361ee"/>
  <circle cx="178" cy="2308" r="3" fill="#4361ee"/>
  <circle cx="196" cy="2308" r="3" fill="#4361ee"/>
  <circle cx="214" cy="2308" r="3" fill="#4361ee"/>
  <circle cx="232" cy="2308" r="3" fill="#4361ee"/>
  <circle cx="250" cy="2308" r="3" fill="#4361ee"/>
  <circle cx="268" cy="2308" r="3" fill="#4361ee"/>
  <circle cx="286" cy="2308" r="3" fill="#4361ee"/>
  <circle cx="304" cy="2308" r="3" fill="#4361ee"/>
  <circle cx="322" cy="2308" r="3" fill="#4361ee"/>
  <circle cx="340" cy="2308" r="3" fill="#4361ee"/>
  <circle cx="358" cy="2308" r="3" fill="#4361ee"/>
  <circle cx="376" cy="2308" r="3" fill="#4361ee"/>
  <circle cx="394" cy="2308" r="3" fill="#4361ee"/>
  <circle cx="412" cy="2308" r="3" fill="#4361ee"/>
  <circle cx="430" cy="2308" r="3" fill="#4361ee"/>
  <circle cx="448" cy="2308" r="3" fill="#4361ee"/>
  <circle cx="466" cy="2308" r="3" fill="#4361ee"/>
  <circle cx="484" cy="2308" r="3" fill="#4361ee"/>
  <circle cx="502" cy="2308" r="3" fill="#4361ee"/>
  <text x="550" y="2320" fill="#8b949e" font-size="10">M₀=32 neighbors (pure proximity)</text>
  <text x="550" y="2340" fill="#8b949e" font-size="10">SmallVec&lt;[u32; 32]&gt; inline storage</text>

  <!-- Greedy descent arrow -->
  <line x1="710" y1="2205" x2="710" y2="2315" stroke="#ffd166" stroke-width="2" marker-end="url(#arrowYellow)"/>
  <text x="720" y="2260" fill="#ffd166" font-size="10" font-weight="bold" transform="rotate(90,720,2260)">greedy descent</text>

  <!-- Deployment info -->
  <rect x="830" y="2185" width="720" height="190" rx="12" fill="#161b22" stroke="#4cc9f0" stroke-width="1.5" filter="url(#shadow)"/>
  <rect x="830" y="2185" width="720" height="36" rx="12" fill="url(#storageGrad)"/>
  <rect x="830" y="2211" width="720" height="10" fill="url(#storageGrad)" />
  <text x="1190" y="2208" text-anchor="middle" fill="#ffffff" font-size="13" font-weight="bold">Deployment &amp; Build</text>

  <text x="850" y="2240" fill="#c9d1d9" font-size="11">Server: 65.108.78.80:50051 (direct binary, bypasses K8s)</text>
  <text x="850" y="2260" fill="#c9d1d9" font-size="11">Docker: Multi-stage build (builder → runtime)</text>
  <text x="850" y="2280" fill="#06d6a0" font-size="11" font-weight="bold">CARGO_BUILD_JOBS=4 (avoids compiler SIGSEGV on OOM)</text>
  <text x="850" y="2300" fill="#c9d1d9" font-size="11">MicroK8s available but direct binary used for benchmarks</text>
  <text x="850" y="2320" fill="#c9d1d9" font-size="11">K8s overhead: ~120ms/batch vs 0.6ms direct (200x slower)</text>
  <text x="850" y="2340" fill="#c9d1d9" font-size="11">Rust edition 2021 · Dependencies: dashmap, rayon, parking_lot, tonic</text>
  <text x="850" y="2360" fill="#c9d1d9" font-size="11">Proto: sochdb/proto/ (VectorIndexService definition)</text>

  <!-- Footer -->
  <rect x="30" y="2390" width="1540" height="2" fill="#30363d"/>
  <text x="800" y="2395" text-anchor="middle" fill="#484f58" font-size="9">SochDB v0.5.0 Architecture Diagram · All metrics: #1 vs Qdrant v1.17.1</text>

</svg>
